<mxfile host="Electron" modified="2024-03-25T16:15:00.606Z" agent="Mozilla/5.0 (X11; Linux x86_64) AppleWebKit/537.36 (KHTML, like Gecko) draw.io/24.1.0 Chrome/120.0.6099.109 Electron/28.1.0 Safari/537.36" etag="R1A9qXMYxEeOe84zCo_U" version="24.1.0" type="device">
  <diagram name="Page-1" id="2a216829-ef6e-dabb-86c1-c78162f3ba2b">
    <mxGraphModel dx="1434" dy="839" grid="1" gridSize="10" guides="1" tooltips="1" connect="1" arrows="1" fold="1" page="1" pageScale="1" pageWidth="850" pageHeight="1100" background="none" math="0" shadow="0">
      <root>
        <mxCell id="0" />
        <mxCell id="1" parent="0" />
        <mxCell id="Zkf546JdRZbN9LwqpenA-2" value="Client" style="swimlane;startSize=20;horizontal=0;html=1;whiteSpace=wrap;" parent="1" vertex="1">
          <mxGeometry x="40" y="90" width="1610" height="120" as="geometry" />
        </mxCell>
        <mxCell id="Zkf546JdRZbN9LwqpenA-25" style="edgeStyle=orthogonalEdgeStyle;rounded=0;orthogonalLoop=1;jettySize=auto;html=1;" parent="Zkf546JdRZbN9LwqpenA-2" source="Zkf546JdRZbN9LwqpenA-1" target="Zkf546JdRZbN9LwqpenA-4" edge="1">
          <mxGeometry relative="1" as="geometry" />
        </mxCell>
        <mxCell id="Zkf546JdRZbN9LwqpenA-1" value="" style="points=[[0.145,0.145,0],[0.5,0,0],[0.855,0.145,0],[1,0.5,0],[0.855,0.855,0],[0.5,1,0],[0.145,0.855,0],[0,0.5,0]];shape=mxgraph.bpmn.event;html=1;verticalLabelPosition=bottom;labelBackgroundColor=#ffffff;verticalAlign=top;align=center;perimeter=ellipsePerimeter;outlineConnect=0;aspect=fixed;outline=standard;symbol=general;" parent="Zkf546JdRZbN9LwqpenA-2" vertex="1">
          <mxGeometry x="60" y="35" width="50" height="50" as="geometry" />
        </mxCell>
        <mxCell id="aQdRWKVEvjICC-77tBXE-8" style="edgeStyle=orthogonalEdgeStyle;rounded=0;orthogonalLoop=1;jettySize=auto;html=1;" edge="1" parent="Zkf546JdRZbN9LwqpenA-2" source="Zkf546JdRZbN9LwqpenA-4" target="aQdRWKVEvjICC-77tBXE-7">
          <mxGeometry relative="1" as="geometry" />
        </mxCell>
        <mxCell id="Zkf546JdRZbN9LwqpenA-4" value="Envoie sa localisation" style="points=[[0.25,0,0],[0.5,0,0],[0.75,0,0],[1,0.25,0],[1,0.5,0],[1,0.75,0],[0.75,1,0],[0.5,1,0],[0.25,1,0],[0,0.75,0],[0,0.5,0],[0,0.25,0]];shape=mxgraph.bpmn.task;whiteSpace=wrap;rectStyle=rounded;size=10;html=1;container=1;expand=0;collapsible=0;taskMarker=send;" parent="Zkf546JdRZbN9LwqpenA-2" vertex="1">
          <mxGeometry x="160" y="20" width="120" height="80" as="geometry" />
        </mxCell>
        <mxCell id="aQdRWKVEvjICC-77tBXE-10" style="edgeStyle=orthogonalEdgeStyle;rounded=0;orthogonalLoop=1;jettySize=auto;html=1;" edge="1" parent="Zkf546JdRZbN9LwqpenA-2" source="Zkf546JdRZbN9LwqpenA-14" target="Zkf546JdRZbN9LwqpenA-22">
          <mxGeometry relative="1" as="geometry" />
        </mxCell>
        <mxCell id="Zkf546JdRZbN9LwqpenA-14" value="Choisi son arrêt parmi la liste" style="points=[[0.25,0,0],[0.5,0,0],[0.75,0,0],[1,0.25,0],[1,0.5,0],[1,0.75,0],[0.75,1,0],[0.5,1,0],[0.25,1,0],[0,0.75,0],[0,0.5,0],[0,0.25,0]];shape=mxgraph.bpmn.task;whiteSpace=wrap;rectStyle=rounded;size=10;html=1;container=1;expand=0;collapsible=0;taskMarker=send;" parent="Zkf546JdRZbN9LwqpenA-2" vertex="1">
          <mxGeometry x="755" y="20" width="120" height="80" as="geometry" />
        </mxCell>
        <mxCell id="Zkf546JdRZbN9LwqpenA-53" style="edgeStyle=orthogonalEdgeStyle;rounded=0;orthogonalLoop=1;jettySize=auto;html=1;" parent="Zkf546JdRZbN9LwqpenA-2" source="Zkf546JdRZbN9LwqpenA-22" target="Zkf546JdRZbN9LwqpenA-45" edge="1">
          <mxGeometry relative="1" as="geometry" />
        </mxCell>
        <mxCell id="Zkf546JdRZbN9LwqpenA-22" value="" style="points=[[0.145,0.145,0],[0.5,0,0],[0.855,0.145,0],[1,0.5,0],[0.855,0.855,0],[0.5,1,0],[0.145,0.855,0],[0,0.5,0]];shape=mxgraph.bpmn.event;html=1;verticalLabelPosition=bottom;labelBackgroundColor=#ffffff;verticalAlign=top;align=center;perimeter=ellipsePerimeter;outlineConnect=0;aspect=fixed;outline=catching;symbol=message;" parent="Zkf546JdRZbN9LwqpenA-2" vertex="1">
          <mxGeometry x="1310" y="35" width="50" height="50" as="geometry" />
        </mxCell>
        <mxCell id="Zkf546JdRZbN9LwqpenA-45" value="" style="points=[[0.145,0.145,0],[0.5,0,0],[0.855,0.145,0],[1,0.5,0],[0.855,0.855,0],[0.5,1,0],[0.145,0.855,0],[0,0.5,0]];shape=mxgraph.bpmn.event;html=1;verticalLabelPosition=bottom;labelBackgroundColor=#ffffff;verticalAlign=top;align=center;perimeter=ellipsePerimeter;outlineConnect=0;aspect=fixed;outline=end;symbol=terminate2;" parent="Zkf546JdRZbN9LwqpenA-2" vertex="1">
          <mxGeometry x="1490" y="35" width="50" height="50" as="geometry" />
        </mxCell>
        <mxCell id="aQdRWKVEvjICC-77tBXE-9" style="edgeStyle=orthogonalEdgeStyle;rounded=0;orthogonalLoop=1;jettySize=auto;html=1;" edge="1" parent="Zkf546JdRZbN9LwqpenA-2" source="aQdRWKVEvjICC-77tBXE-7" target="Zkf546JdRZbN9LwqpenA-14">
          <mxGeometry relative="1" as="geometry" />
        </mxCell>
        <mxCell id="aQdRWKVEvjICC-77tBXE-7" value="" style="points=[[0.145,0.145,0],[0.5,0,0],[0.855,0.145,0],[1,0.5,0],[0.855,0.855,0],[0.5,1,0],[0.145,0.855,0],[0,0.5,0]];shape=mxgraph.bpmn.event;html=1;verticalLabelPosition=bottom;labelBackgroundColor=#ffffff;verticalAlign=top;align=center;perimeter=ellipsePerimeter;outlineConnect=0;aspect=fixed;outline=catching;symbol=message;" vertex="1" parent="Zkf546JdRZbN9LwqpenA-2">
          <mxGeometry x="665" y="35" width="50" height="50" as="geometry" />
        </mxCell>
        <mxCell id="Zkf546JdRZbN9LwqpenA-5" value="Application" style="swimlane;startSize=20;horizontal=0;html=1;whiteSpace=wrap;" parent="1" vertex="1">
          <mxGeometry x="40" y="290" width="1610" height="120" as="geometry" />
        </mxCell>
        <mxCell id="Zkf546JdRZbN9LwqpenA-27" style="edgeStyle=orthogonalEdgeStyle;rounded=0;orthogonalLoop=1;jettySize=auto;html=1;" parent="Zkf546JdRZbN9LwqpenA-5" source="Zkf546JdRZbN9LwqpenA-6" target="Zkf546JdRZbN9LwqpenA-7" edge="1">
          <mxGeometry relative="1" as="geometry" />
        </mxCell>
        <mxCell id="Zkf546JdRZbN9LwqpenA-6" value="" style="points=[[0.145,0.145,0],[0.5,0,0],[0.855,0.145,0],[1,0.5,0],[0.855,0.855,0],[0.5,1,0],[0.145,0.855,0],[0,0.5,0]];shape=mxgraph.bpmn.event;html=1;verticalLabelPosition=bottom;labelBackgroundColor=#ffffff;verticalAlign=top;align=center;perimeter=ellipsePerimeter;outlineConnect=0;aspect=fixed;outline=standard;symbol=message;" parent="Zkf546JdRZbN9LwqpenA-5" vertex="1">
          <mxGeometry x="60" y="35" width="50" height="50" as="geometry" />
        </mxCell>
        <mxCell id="Zkf546JdRZbN9LwqpenA-28" style="edgeStyle=orthogonalEdgeStyle;rounded=0;orthogonalLoop=1;jettySize=auto;html=1;" parent="Zkf546JdRZbN9LwqpenA-5" source="Zkf546JdRZbN9LwqpenA-7" target="Zkf546JdRZbN9LwqpenA-12" edge="1">
          <mxGeometry relative="1" as="geometry" />
        </mxCell>
        <mxCell id="Zkf546JdRZbN9LwqpenA-7" value="Envoie la localisation" style="points=[[0.25,0,0],[0.5,0,0],[0.75,0,0],[1,0.25,0],[1,0.5,0],[1,0.75,0],[0.75,1,0],[0.5,1,0],[0.25,1,0],[0,0.75,0],[0,0.5,0],[0,0.25,0]];shape=mxgraph.bpmn.task;whiteSpace=wrap;rectStyle=rounded;size=10;html=1;container=1;expand=0;collapsible=0;taskMarker=send;" parent="Zkf546JdRZbN9LwqpenA-5" vertex="1">
          <mxGeometry x="160" y="20" width="120" height="80" as="geometry" />
        </mxCell>
        <mxCell id="Zkf546JdRZbN9LwqpenA-12" value="" style="points=[[0.145,0.145,0],[0.5,0,0],[0.855,0.145,0],[1,0.5,0],[0.855,0.855,0],[0.5,1,0],[0.145,0.855,0],[0,0.5,0]];shape=mxgraph.bpmn.event;html=1;verticalLabelPosition=bottom;labelBackgroundColor=#ffffff;verticalAlign=top;align=center;perimeter=ellipsePerimeter;outlineConnect=0;aspect=fixed;outline=catching;symbol=message;" parent="Zkf546JdRZbN9LwqpenA-5" vertex="1">
          <mxGeometry x="363" y="35" width="50" height="50" as="geometry" />
        </mxCell>
        <mxCell id="Zkf546JdRZbN9LwqpenA-13" value="Mise en forme des données pour le client" style="points=[[0.25,0,0],[0.5,0,0],[0.75,0,0],[1,0.25,0],[1,0.5,0],[1,0.75,0],[0.75,1,0],[0.5,1,0],[0.25,1,0],[0,0.75,0],[0,0.5,0],[0,0.25,0]];shape=mxgraph.bpmn.task;whiteSpace=wrap;rectStyle=rounded;size=10;html=1;container=1;expand=0;collapsible=0;taskMarker=service;" parent="Zkf546JdRZbN9LwqpenA-5" vertex="1">
          <mxGeometry x="460" y="20" width="120" height="80" as="geometry" />
        </mxCell>
        <mxCell id="Zkf546JdRZbN9LwqpenA-31" style="edgeStyle=orthogonalEdgeStyle;rounded=0;orthogonalLoop=1;jettySize=auto;html=1;" parent="Zkf546JdRZbN9LwqpenA-5" source="Zkf546JdRZbN9LwqpenA-15" target="Zkf546JdRZbN9LwqpenA-16" edge="1">
          <mxGeometry relative="1" as="geometry" />
        </mxCell>
        <mxCell id="Zkf546JdRZbN9LwqpenA-15" value="" style="points=[[0.145,0.145,0],[0.5,0,0],[0.855,0.145,0],[1,0.5,0],[0.855,0.855,0],[0.5,1,0],[0.145,0.855,0],[0,0.5,0]];shape=mxgraph.bpmn.event;html=1;verticalLabelPosition=bottom;labelBackgroundColor=#ffffff;verticalAlign=top;align=center;perimeter=ellipsePerimeter;outlineConnect=0;aspect=fixed;outline=catching;symbol=message;" parent="Zkf546JdRZbN9LwqpenA-5" vertex="1">
          <mxGeometry x="790" y="35" width="50" height="50" as="geometry" />
        </mxCell>
        <mxCell id="Zkf546JdRZbN9LwqpenA-32" style="edgeStyle=orthogonalEdgeStyle;rounded=0;orthogonalLoop=1;jettySize=auto;html=1;" parent="Zkf546JdRZbN9LwqpenA-5" source="Zkf546JdRZbN9LwqpenA-16" target="Zkf546JdRZbN9LwqpenA-21" edge="1">
          <mxGeometry relative="1" as="geometry" />
        </mxCell>
        <mxCell id="Zkf546JdRZbN9LwqpenA-16" value="Envoie l&#39;arrêt choisi" style="points=[[0.25,0,0],[0.5,0,0],[0.75,0,0],[1,0.25,0],[1,0.5,0],[1,0.75,0],[0.75,1,0],[0.5,1,0],[0.25,1,0],[0,0.75,0],[0,0.5,0],[0,0.25,0]];shape=mxgraph.bpmn.task;whiteSpace=wrap;rectStyle=rounded;size=10;html=1;container=1;expand=0;collapsible=0;taskMarker=send;" parent="Zkf546JdRZbN9LwqpenA-5" vertex="1">
          <mxGeometry x="890" y="20" width="120" height="80" as="geometry" />
        </mxCell>
        <mxCell id="Zkf546JdRZbN9LwqpenA-29" style="edgeStyle=orthogonalEdgeStyle;rounded=0;orthogonalLoop=1;jettySize=auto;html=1;entryX=0;entryY=0.5;entryDx=0;entryDy=0;entryPerimeter=0;" parent="Zkf546JdRZbN9LwqpenA-5" source="Zkf546JdRZbN9LwqpenA-12" target="Zkf546JdRZbN9LwqpenA-13" edge="1">
          <mxGeometry relative="1" as="geometry" />
        </mxCell>
        <mxCell id="Zkf546JdRZbN9LwqpenA-33" style="edgeStyle=orthogonalEdgeStyle;rounded=0;orthogonalLoop=1;jettySize=auto;html=1;" parent="Zkf546JdRZbN9LwqpenA-5" source="Zkf546JdRZbN9LwqpenA-21" target="Zkf546JdRZbN9LwqpenA-24" edge="1">
          <mxGeometry relative="1" as="geometry" />
        </mxCell>
        <mxCell id="Zkf546JdRZbN9LwqpenA-21" value="" style="points=[[0.145,0.145,0],[0.5,0,0],[0.855,0.145,0],[1,0.5,0],[0.855,0.855,0],[0.5,1,0],[0.145,0.855,0],[0,0.5,0]];shape=mxgraph.bpmn.event;html=1;verticalLabelPosition=bottom;labelBackgroundColor=#ffffff;verticalAlign=top;align=center;perimeter=ellipsePerimeter;outlineConnect=0;aspect=fixed;outline=catching;symbol=message;" parent="Zkf546JdRZbN9LwqpenA-5" vertex="1">
          <mxGeometry x="1100" y="35" width="50" height="50" as="geometry" />
        </mxCell>
        <mxCell id="Zkf546JdRZbN9LwqpenA-23" value="Affichage des données" style="points=[[0.25,0,0],[0.5,0,0],[0.75,0,0],[1,0.25,0],[1,0.5,0],[1,0.75,0],[0.75,1,0],[0.5,1,0],[0.25,1,0],[0,0.75,0],[0,0.5,0],[0,0.25,0]];shape=mxgraph.bpmn.task;whiteSpace=wrap;rectStyle=rounded;size=10;html=1;container=1;expand=0;collapsible=0;taskMarker=send;" parent="Zkf546JdRZbN9LwqpenA-5" vertex="1">
          <mxGeometry x="1360" y="20" width="120" height="80" as="geometry" />
        </mxCell>
        <mxCell id="Zkf546JdRZbN9LwqpenA-34" style="edgeStyle=orthogonalEdgeStyle;rounded=0;orthogonalLoop=1;jettySize=auto;html=1;" parent="Zkf546JdRZbN9LwqpenA-5" source="Zkf546JdRZbN9LwqpenA-24" target="Zkf546JdRZbN9LwqpenA-23" edge="1">
          <mxGeometry relative="1" as="geometry" />
        </mxCell>
        <mxCell id="Zkf546JdRZbN9LwqpenA-24" value="Mise en forme des données pour le client" style="points=[[0.25,0,0],[0.5,0,0],[0.75,0,0],[1,0.25,0],[1,0.5,0],[1,0.75,0],[0.75,1,0],[0.5,1,0],[0.25,1,0],[0,0.75,0],[0,0.5,0],[0,0.25,0]];shape=mxgraph.bpmn.task;whiteSpace=wrap;rectStyle=rounded;size=10;html=1;container=1;expand=0;collapsible=0;taskMarker=service;" parent="Zkf546JdRZbN9LwqpenA-5" vertex="1">
          <mxGeometry x="1200" y="20" width="120" height="80" as="geometry" />
        </mxCell>
        <mxCell id="Zkf546JdRZbN9LwqpenA-42" value="" style="points=[[0.145,0.145,0],[0.5,0,0],[0.855,0.145,0],[1,0.5,0],[0.855,0.855,0],[0.5,1,0],[0.145,0.855,0],[0,0.5,0]];shape=mxgraph.bpmn.event;html=1;verticalLabelPosition=bottom;labelBackgroundColor=#ffffff;verticalAlign=top;align=center;perimeter=ellipsePerimeter;outlineConnect=0;aspect=fixed;outline=end;symbol=terminate2;" parent="Zkf546JdRZbN9LwqpenA-5" vertex="1">
          <mxGeometry x="1520" y="35" width="50" height="50" as="geometry" />
        </mxCell>
        <mxCell id="Zkf546JdRZbN9LwqpenA-44" style="edgeStyle=orthogonalEdgeStyle;rounded=0;orthogonalLoop=1;jettySize=auto;html=1;entryX=0;entryY=0.5;entryDx=0;entryDy=0;entryPerimeter=0;" parent="Zkf546JdRZbN9LwqpenA-5" source="Zkf546JdRZbN9LwqpenA-23" target="Zkf546JdRZbN9LwqpenA-42" edge="1">
          <mxGeometry relative="1" as="geometry" />
        </mxCell>
        <mxCell id="aQdRWKVEvjICC-77tBXE-4" style="edgeStyle=orthogonalEdgeStyle;rounded=0;orthogonalLoop=1;jettySize=auto;html=1;" edge="1" parent="Zkf546JdRZbN9LwqpenA-5" source="aQdRWKVEvjICC-77tBXE-3" target="Zkf546JdRZbN9LwqpenA-15">
          <mxGeometry relative="1" as="geometry" />
        </mxCell>
        <mxCell id="aQdRWKVEvjICC-77tBXE-3" value="Renvoie la page" style="points=[[0.25,0,0],[0.5,0,0],[0.75,0,0],[1,0.25,0],[1,0.5,0],[1,0.75,0],[0.75,1,0],[0.5,1,0],[0.25,1,0],[0,0.75,0],[0,0.5,0],[0,0.25,0]];shape=mxgraph.bpmn.task;whiteSpace=wrap;rectStyle=rounded;size=10;html=1;container=1;expand=0;collapsible=0;taskMarker=send;" vertex="1" parent="Zkf546JdRZbN9LwqpenA-5">
          <mxGeometry x="630" y="20" width="120" height="80" as="geometry" />
        </mxCell>
        <mxCell id="aQdRWKVEvjICC-77tBXE-5" style="edgeStyle=orthogonalEdgeStyle;rounded=0;orthogonalLoop=1;jettySize=auto;html=1;entryX=0;entryY=0.5;entryDx=0;entryDy=0;entryPerimeter=0;" edge="1" parent="Zkf546JdRZbN9LwqpenA-5" source="Zkf546JdRZbN9LwqpenA-13" target="aQdRWKVEvjICC-77tBXE-3">
          <mxGeometry relative="1" as="geometry" />
        </mxCell>
        <mxCell id="Zkf546JdRZbN9LwqpenA-8" value="API" style="swimlane;startSize=20;horizontal=0;html=1;whiteSpace=wrap;" parent="1" vertex="1">
          <mxGeometry x="40" y="480" width="1620" height="120" as="geometry" />
        </mxCell>
        <mxCell id="Zkf546JdRZbN9LwqpenA-35" style="edgeStyle=orthogonalEdgeStyle;rounded=0;orthogonalLoop=1;jettySize=auto;html=1;" parent="Zkf546JdRZbN9LwqpenA-8" source="Zkf546JdRZbN9LwqpenA-9" target="Zkf546JdRZbN9LwqpenA-10" edge="1">
          <mxGeometry relative="1" as="geometry" />
        </mxCell>
        <mxCell id="Zkf546JdRZbN9LwqpenA-9" value="" style="points=[[0.145,0.145,0],[0.5,0,0],[0.855,0.145,0],[1,0.5,0],[0.855,0.855,0],[0.5,1,0],[0.145,0.855,0],[0,0.5,0]];shape=mxgraph.bpmn.event;html=1;verticalLabelPosition=bottom;labelBackgroundColor=#ffffff;verticalAlign=top;align=center;perimeter=ellipsePerimeter;outlineConnect=0;aspect=fixed;outline=standard;symbol=message;" parent="Zkf546JdRZbN9LwqpenA-8" vertex="1">
          <mxGeometry x="60" y="35" width="50" height="50" as="geometry" />
        </mxCell>
        <mxCell id="Zkf546JdRZbN9LwqpenA-36" style="edgeStyle=orthogonalEdgeStyle;rounded=0;orthogonalLoop=1;jettySize=auto;html=1;" parent="Zkf546JdRZbN9LwqpenA-8" source="Zkf546JdRZbN9LwqpenA-10" target="Zkf546JdRZbN9LwqpenA-11" edge="1">
          <mxGeometry relative="1" as="geometry" />
        </mxCell>
        <mxCell id="Zkf546JdRZbN9LwqpenA-10" value="Récupère les 10 arrêts les plus proches" style="points=[[0.25,0,0],[0.5,0,0],[0.75,0,0],[1,0.25,0],[1,0.5,0],[1,0.75,0],[0.75,1,0],[0.5,1,0],[0.25,1,0],[0,0.75,0],[0,0.5,0],[0,0.25,0]];shape=mxgraph.bpmn.task;whiteSpace=wrap;rectStyle=rounded;size=10;html=1;container=1;expand=0;collapsible=0;taskMarker=service;" parent="Zkf546JdRZbN9LwqpenA-8" vertex="1">
          <mxGeometry x="160" y="20" width="120" height="80" as="geometry" />
        </mxCell>
        <mxCell id="Zkf546JdRZbN9LwqpenA-37" style="edgeStyle=orthogonalEdgeStyle;rounded=0;orthogonalLoop=1;jettySize=auto;html=1;" parent="Zkf546JdRZbN9LwqpenA-8" source="Zkf546JdRZbN9LwqpenA-11" target="Zkf546JdRZbN9LwqpenA-17" edge="1">
          <mxGeometry relative="1" as="geometry" />
        </mxCell>
        <mxCell id="Zkf546JdRZbN9LwqpenA-11" value="Envoie les arrêts" style="points=[[0.25,0,0],[0.5,0,0],[0.75,0,0],[1,0.25,0],[1,0.5,0],[1,0.75,0],[0.75,1,0],[0.5,1,0],[0.25,1,0],[0,0.75,0],[0,0.5,0],[0,0.25,0]];shape=mxgraph.bpmn.task;whiteSpace=wrap;rectStyle=rounded;size=10;html=1;container=1;expand=0;collapsible=0;taskMarker=send;" parent="Zkf546JdRZbN9LwqpenA-8" vertex="1">
          <mxGeometry x="330" y="20" width="120" height="80" as="geometry" />
        </mxCell>
        <mxCell id="Zkf546JdRZbN9LwqpenA-38" style="edgeStyle=orthogonalEdgeStyle;rounded=0;orthogonalLoop=1;jettySize=auto;html=1;" parent="Zkf546JdRZbN9LwqpenA-8" source="Zkf546JdRZbN9LwqpenA-17" target="Zkf546JdRZbN9LwqpenA-18" edge="1">
          <mxGeometry relative="1" as="geometry" />
        </mxCell>
        <mxCell id="Zkf546JdRZbN9LwqpenA-17" value="" style="points=[[0.145,0.145,0],[0.5,0,0],[0.855,0.145,0],[1,0.5,0],[0.855,0.855,0],[0.5,1,0],[0.145,0.855,0],[0,0.5,0]];shape=mxgraph.bpmn.event;html=1;verticalLabelPosition=bottom;labelBackgroundColor=#ffffff;verticalAlign=top;align=center;perimeter=ellipsePerimeter;outlineConnect=0;aspect=fixed;outline=catching;symbol=message;" parent="Zkf546JdRZbN9LwqpenA-8" vertex="1">
          <mxGeometry x="820" y="35" width="50" height="50" as="geometry" />
        </mxCell>
        <mxCell id="Zkf546JdRZbN9LwqpenA-39" style="edgeStyle=orthogonalEdgeStyle;rounded=0;orthogonalLoop=1;jettySize=auto;html=1;" parent="Zkf546JdRZbN9LwqpenA-8" source="Zkf546JdRZbN9LwqpenA-18" target="Zkf546JdRZbN9LwqpenA-19" edge="1">
          <mxGeometry relative="1" as="geometry" />
        </mxCell>
        <mxCell id="Zkf546JdRZbN9LwqpenA-18" value="Récupère les information sur l&#39;arrêt" style="points=[[0.25,0,0],[0.5,0,0],[0.75,0,0],[1,0.25,0],[1,0.5,0],[1,0.75,0],[0.75,1,0],[0.5,1,0],[0.25,1,0],[0,0.75,0],[0,0.5,0],[0,0.25,0]];shape=mxgraph.bpmn.task;whiteSpace=wrap;rectStyle=rounded;size=10;html=1;container=1;expand=0;collapsible=0;taskMarker=service;" parent="Zkf546JdRZbN9LwqpenA-8" vertex="1">
          <mxGeometry x="950" y="20" width="120" height="80" as="geometry" />
        </mxCell>
        <mxCell id="Zkf546JdRZbN9LwqpenA-19" value="Envoie les informations" style="points=[[0.25,0,0],[0.5,0,0],[0.75,0,0],[1,0.25,0],[1,0.5,0],[1,0.75,0],[0.75,1,0],[0.5,1,0],[0.25,1,0],[0,0.75,0],[0,0.5,0],[0,0.25,0]];shape=mxgraph.bpmn.task;whiteSpace=wrap;rectStyle=rounded;size=10;html=1;container=1;expand=0;collapsible=0;taskMarker=send;" parent="Zkf546JdRZbN9LwqpenA-8" vertex="1">
          <mxGeometry x="1150" y="20" width="120" height="80" as="geometry" />
        </mxCell>
        <mxCell id="Zkf546JdRZbN9LwqpenA-40" value="" style="points=[[0.145,0.145,0],[0.5,0,0],[0.855,0.145,0],[1,0.5,0],[0.855,0.855,0],[0.5,1,0],[0.145,0.855,0],[0,0.5,0]];shape=mxgraph.bpmn.event;html=1;verticalLabelPosition=bottom;labelBackgroundColor=#ffffff;verticalAlign=top;align=center;perimeter=ellipsePerimeter;outlineConnect=0;aspect=fixed;outline=end;symbol=terminate2;" parent="Zkf546JdRZbN9LwqpenA-8" vertex="1">
          <mxGeometry x="1360" y="35" width="50" height="50" as="geometry" />
        </mxCell>
        <mxCell id="Zkf546JdRZbN9LwqpenA-41" style="edgeStyle=orthogonalEdgeStyle;rounded=0;orthogonalLoop=1;jettySize=auto;html=1;entryX=0;entryY=0.5;entryDx=0;entryDy=0;entryPerimeter=0;" parent="Zkf546JdRZbN9LwqpenA-8" source="Zkf546JdRZbN9LwqpenA-19" target="Zkf546JdRZbN9LwqpenA-40" edge="1">
          <mxGeometry relative="1" as="geometry" />
        </mxCell>
        <mxCell id="Zkf546JdRZbN9LwqpenA-26" value="" style="dashed=1;dashPattern=8 4;endArrow=blockThin;endFill=1;startArrow=oval;startFill=0;endSize=6;startSize=4;html=1;rounded=0;entryX=0.855;entryY=0.145;entryDx=0;entryDy=0;entryPerimeter=0;" parent="1" source="Zkf546JdRZbN9LwqpenA-4" target="Zkf546JdRZbN9LwqpenA-6" edge="1">
          <mxGeometry width="160" relative="1" as="geometry">
            <mxPoint x="150" y="230" as="sourcePoint" />
            <mxPoint x="310" y="230" as="targetPoint" />
            <Array as="points">
              <mxPoint x="260" y="260" />
              <mxPoint x="143" y="260" />
            </Array>
          </mxGeometry>
        </mxCell>
        <mxCell id="Zkf546JdRZbN9LwqpenA-47" value="" style="dashed=1;dashPattern=8 4;endArrow=blockThin;endFill=1;startArrow=oval;startFill=0;endSize=6;startSize=4;html=1;rounded=0;" parent="1" source="Zkf546JdRZbN9LwqpenA-7" target="Zkf546JdRZbN9LwqpenA-9" edge="1">
          <mxGeometry width="160" relative="1" as="geometry">
            <mxPoint x="180" y="710" as="sourcePoint" />
            <mxPoint x="340" y="710" as="targetPoint" />
            <Array as="points">
              <mxPoint x="260" y="450" />
              <mxPoint x="125" y="450" />
            </Array>
          </mxGeometry>
        </mxCell>
        <mxCell id="Zkf546JdRZbN9LwqpenA-48" value="" style="dashed=1;dashPattern=8 4;endArrow=blockThin;endFill=1;startArrow=oval;startFill=0;endSize=6;startSize=4;html=1;rounded=0;" parent="1" source="Zkf546JdRZbN9LwqpenA-11" target="Zkf546JdRZbN9LwqpenA-12" edge="1">
          <mxGeometry width="160" relative="1" as="geometry">
            <mxPoint x="242" y="400" as="sourcePoint" />
            <mxPoint x="149" y="530" as="targetPoint" />
          </mxGeometry>
        </mxCell>
        <mxCell id="Zkf546JdRZbN9LwqpenA-49" value="" style="dashed=1;dashPattern=8 4;endArrow=blockThin;endFill=1;startArrow=oval;startFill=0;endSize=6;startSize=4;html=1;rounded=0;" parent="1" source="Zkf546JdRZbN9LwqpenA-14" target="Zkf546JdRZbN9LwqpenA-15" edge="1">
          <mxGeometry width="160" relative="1" as="geometry">
            <mxPoint x="633" y="420" as="sourcePoint" />
            <mxPoint x="540" y="550" as="targetPoint" />
          </mxGeometry>
        </mxCell>
        <mxCell id="Zkf546JdRZbN9LwqpenA-50" value="" style="dashed=1;dashPattern=8 4;endArrow=blockThin;endFill=1;startArrow=oval;startFill=0;endSize=6;startSize=4;html=1;rounded=0;" parent="1" source="Zkf546JdRZbN9LwqpenA-16" target="Zkf546JdRZbN9LwqpenA-17" edge="1">
          <mxGeometry width="160" relative="1" as="geometry">
            <mxPoint x="783" y="400" as="sourcePoint" />
            <mxPoint x="690" y="530" as="targetPoint" />
            <Array as="points">
              <mxPoint x="990" y="450" />
              <mxPoint x="885" y="450" />
            </Array>
          </mxGeometry>
        </mxCell>
        <mxCell id="Zkf546JdRZbN9LwqpenA-51" value="" style="dashed=1;dashPattern=8 4;endArrow=blockThin;endFill=1;startArrow=oval;startFill=0;endSize=6;startSize=4;html=1;rounded=0;" parent="1" source="Zkf546JdRZbN9LwqpenA-19" target="Zkf546JdRZbN9LwqpenA-21" edge="1">
          <mxGeometry width="160" relative="1" as="geometry">
            <mxPoint x="1193" y="420" as="sourcePoint" />
            <mxPoint x="1100" y="550" as="targetPoint" />
            <Array as="points">
              <mxPoint x="1250" y="450" />
              <mxPoint x="1165" y="450" />
            </Array>
          </mxGeometry>
        </mxCell>
        <mxCell id="Zkf546JdRZbN9LwqpenA-52" value="" style="dashed=1;dashPattern=8 4;endArrow=blockThin;endFill=1;startArrow=oval;startFill=0;endSize=6;startSize=4;html=1;rounded=0;entryX=0.5;entryY=1;entryDx=0;entryDy=0;entryPerimeter=0;" parent="1" source="Zkf546JdRZbN9LwqpenA-23" target="Zkf546JdRZbN9LwqpenA-22" edge="1">
          <mxGeometry width="160" relative="1" as="geometry">
            <mxPoint x="1443" y="430" as="sourcePoint" />
            <mxPoint x="1350" y="560" as="targetPoint" />
            <Array as="points">
              <mxPoint x="1460" y="270" />
              <mxPoint x="1375" y="270" />
            </Array>
          </mxGeometry>
        </mxCell>
        <mxCell id="aQdRWKVEvjICC-77tBXE-6" value="" style="dashed=1;dashPattern=8 4;endArrow=blockThin;endFill=1;startArrow=oval;startFill=0;endSize=6;startSize=4;html=1;rounded=0;" edge="1" parent="1" source="aQdRWKVEvjICC-77tBXE-3" target="aQdRWKVEvjICC-77tBXE-7">
          <mxGeometry width="160" relative="1" as="geometry">
            <mxPoint x="865" y="195" as="sourcePoint" />
            <mxPoint x="720" y="180" as="targetPoint" />
          </mxGeometry>
        </mxCell>
      </root>
    </mxGraphModel>
  </diagram>
</mxfile>
